# xmcd CD database file
# Copyright (C) 1993-1998 Ti Kan
# 
# Track frame offsets:
#     150
#     8575
#     20025
#     32025
#     43687
#     60300
#     72825
#     91450
#     103212
#     113862
#     127900
#     146437
#     160112
#     171250
#     183075
#     194875
# 
# Disc length: 2767 seconds
# 
# Revision: 1
# Processed by: cddbd v1.4b41PL1 Copyright (c) Steve Scherf et al.
# Submitted via: DiscPlay 4.0.4
# 
DISCID=d70acd10
DTITLE=Johnny Cash - The Rebel
DYEAR=1900
DGENRE=
TTITLE0=The Rebel - Johnny Yuma
TTITLE1=A Thing Called Love
TTITLE2=Get Rhythm
TTITLE3=Ring Of Fire
TTITLE4=A Boy Named Sue
TTITLE5=The One On The Right Is On The Left
TTITLE6=Sunday Morning Coming Down
TTITLE7=Flesh and Blood
TTITLE8=Daddy Sang Bass
TTITLE9=Orange Blossom Special
TTITLE10=The Ballad of Ira Hayes
TTITLE11=It Ain't Me Baby
TTITLE12=Without Love
TTITLE13=Girl From The Canyon
TTITLE14=What Is Truth
TTITLE15=See Ruby Fall
EXTD=
EXTT0=
EXTT1=
EXTT2=
EXTT3=
EXTT4=
EXTT5=
EXTT6=
EXTT7=
EXTT8=
EXTT9=
EXTT10=
EXTT11=
EXTT12=
EXTT13=
EXTT14=
EXTT15=
PLAYORDER=
